<svg xmlns="http://www.w3.org/2000/svg" width="32" height="32" fill="none" viewBox="0 0 32 32">
  <g clip-path="url(#a)">
    <path fill="#fff" d="M0 0h32v32H0z"/>
    <path fill="#0D47A1" d="m13.27 22.55-1.812 1.931-8.75-8.212 8.213-8.75 1.944 1.825-6.387 6.805 6.792 6.375v.026Zm5.46 0 1.813 1.931 8.75-8.212-8.212-8.75-1.945 1.825 6.387 6.805-6.792 6.375v.026Z"/>
    <g clip-path="url(#b)">
      <path fill="#0D47A1" d="M20.821 15.771c-.087-.112-2.17-2.737-4.82-2.737-2.653 0-4.735 2.625-4.822 2.737L11 16l.179.229c.087.111 2.17 2.737 4.821 2.737 2.652 0 4.734-2.626 4.821-2.738L21 16l-.179-.229Zm-4.82 2.453c-1.866 0-3.494-1.615-4.041-2.224.547-.61 2.175-2.224 4.04-2.224 1.865 0 3.493 1.615 4.04 2.224-.547.61-2.175 2.224-4.04 2.224Z"/>
      <path fill="#0D47A1" d="M16 13.968c-1.12 0-2.032.912-2.032 2.032s.912 2.032 2.032 2.032 2.032-.912 2.032-2.032-.912-2.032-2.032-2.032Zm0 3.321A1.29 1.29 0 0 1 14.71 16a1.29 1.29 0 0 1 2.578 0A1.289 1.289 0 0 1 16 17.29Z"/>
    </g>
  </g>
  <defs>
    <clipPath id="a">
      <path fill="#fff" d="M0 0h32v32H0z"/>
    </clipPath>
    <clipPath id="b">
      <path fill="#fff" d="M11 11h10v10H11z"/>
    </clipPath>
  </defs>
</svg>
